<?xml version="1.0" standalone="no"?>
<!DOCTYPE svg PUBLIC "-//W3C//DTD SVG 20010904//EN"
 "http://www.w3.org/TR/2001/REC-SVG-20010904/DTD/svg10.dtd">
<svg version="1.0" xmlns="http://www.w3.org/2000/svg"
 width="928.000000pt" height="928.000000pt" viewBox="0 0 928.000000 928.000000"
 preserveAspectRatio="xMidYMid meet">
<metadata>
Created by potrace 1.14, written by Peter Selinger 2001-2017
</metadata>
<g transform="translate(0.000000,928.000000) scale(0.100000,-0.100000)"
fill="#000000" stroke="none">
<path d="M8978 9267 c-16 -6 -28 -14 -28 -19 0 -4 -7 -8 -15 -8 -8 0 -15 -4
-15 -10 0 -5 -4 -10 -9 -10 -5 0 -55 -27 -111 -60 -56 -33 -106 -60 -111 -60
-5 0 -9 -4 -9 -9 0 -5 -8 -11 -17 -14 -10 -3 -40 -19 -68 -36 -27 -16 -81 -48
-120 -70 -38 -23 -88 -52 -110 -65 -48 -29 -111 -65 -142 -80 -13 -6 -23 -14
-23 -18 0 -5 -4 -8 -10 -8 -5 0 -39 -18 -75 -40 -36 -22 -68 -40 -72 -40 -3 0
-14 -6 -22 -14 -9 -7 -36 -25 -61 -38 -25 -14 -97 -56 -160 -93 -114 -67 -148
-87 -214 -124 -19 -11 -52 -31 -73 -44 -21 -13 -48 -27 -60 -31 -13 -4 -23
-11 -23 -16 0 -4 -8 -10 -17 -14 -10 -3 -25 -10 -33 -16 -16 -11 -267 -157
-340 -198 -25 -14 -62 -36 -82 -49 -21 -13 -38 -20 -38 -16 0 5 -4 3 -8 -3 -8
-13 -83 -59 -124 -77 -16 -6 -28 -15 -28 -19 0 -4 -6 -8 -14 -8 -7 0 -19 -7
-26 -15 -7 -8 -16 -12 -21 -9 -5 3 -9 1 -9 -4 0 -4 -16 -14 -35 -22 -19 -8
-35 -16 -35 -19 0 -3 -21 -17 -47 -31 -27 -13 -50 -27 -53 -30 -3 -3 -14 -10
-25 -16 -80 -43 -124 -69 -147 -85 -14 -11 -29 -19 -32 -19 -5 0 -129 -72
-304 -176 -40 -24 -74 -44 -76 -44 -2 0 -51 -28 -108 -61 -56 -34 -119 -71
-138 -82 -68 -38 -366 -211 -450 -261 -47 -28 -88 -50 -92 -48 -5 1 -8 -3 -8
-8 0 -6 -6 -10 -14 -10 -8 0 -16 -3 -18 -7 -3 -7 -17 -16 -103 -62 -16 -9 -32
-19 -35 -22 -3 -3 -12 -8 -20 -12 -8 -3 -37 -20 -65 -37 -27 -16 -57 -33 -65
-37 -8 -4 -43 -24 -78 -45 -34 -21 -67 -38 -72 -38 -6 0 -10 -4 -10 -9 0 -5
-8 -11 -17 -14 -18 -6 -64 -32 -156 -88 -26 -16 -52 -29 -57 -29 -6 0 -10 -4
-10 -9 0 -5 -9 -13 -21 -16 -26 -9 -121 -66 -131 -80 -4 -5 -8 -7 -8 -3 0 4
-57 -27 -126 -68 -69 -41 -127 -74 -128 -74 -2 0 -44 -25 -94 -55 -50 -30 -96
-55 -102 -55 -5 0 -10 -4 -10 -10 0 -5 -6 -10 -12 -11 -7 0 -27 -10 -44 -22
-54 -39 -174 -117 -179 -117 -2 0 -48 -26 -102 -59 -94 -56 -390 -227 -483
-280 -25 -13 -47 -27 -50 -30 -3 -3 -25 -16 -50 -29 -44 -23 -145 -83 -165
-99 -6 -4 -17 -9 -25 -11 -8 -2 -22 -10 -31 -18 -8 -8 -19 -14 -22 -14 -4 0
-36 -18 -72 -40 -36 -22 -70 -40 -75 -40 -6 0 -10 -4 -10 -10 0 -5 -6 -10 -14
-10 -7 0 -19 -7 -26 -15 -7 -8 -16 -13 -20 -10 -4 3 -13 -1 -19 -9 -6 -7 -29
-21 -51 -31 -22 -10 -40 -22 -40 -27 0 -4 -5 -8 -11 -8 -6 0 -64 -31 -129 -70
-65 -38 -123 -70 -129 -70 -5 0 -11 -4 -13 -8 -2 -4 -23 -19 -48 -33 -25 -14
-62 -35 -83 -47 -20 -12 -52 -30 -70 -41 -154 -88 -357 -206 -377 -219 -14 -9
-28 -15 -32 -14 -5 1 -8 -2 -8 -7 0 -5 -9 -12 -20 -16 -20 -6 -121 -65 -143
-83 -7 -6 -19 -12 -27 -14 -8 -2 -17 -6 -20 -9 -5 -5 -88 -55 -180 -106 -68
-39 -335 -194 -350 -204 -8 -5 -23 -12 -32 -15 -10 -4 -18 -9 -18 -13 0 -4
-16 -13 -35 -21 -19 -8 -35 -16 -35 -19 0 -3 -18 -15 -40 -25 -22 -11 -40 -23
-40 -28 0 -4 -5 -8 -12 -8 -11 0 -218 -117 -228 -129 -3 -3 -12 -7 -20 -9 -8
-2 -23 -11 -32 -19 -17 -15 -18 -127 -18 -2074 l0 -2057 93 51 c50 28 94 54
97 57 3 4 19 13 35 22 63 32 180 102 187 112 4 6 8 8 8 4 0 -4 24 7 53 26 28
18 62 36 75 40 12 4 22 12 22 17 0 5 4 9 9 9 9 0 202 109 211 120 3 3 23 14
45 25 22 11 42 23 43 28 2 4 10 7 18 7 8 0 14 5 14 11 0 5 4 8 9 4 5 -3 12 -1
15 4 4 5 39 28 79 50 39 22 99 57 132 76 33 20 68 38 78 42 9 3 17 9 17 14 0
5 4 9 10 9 5 0 43 20 83 45 41 25 79 45 85 45 6 0 12 3 14 8 4 9 235 142 248
142 6 0 10 3 10 8 0 4 21 18 48 31 26 14 58 32 72 42 22 14 60 36 150 86 14 8
43 25 65 39 22 13 51 30 65 37 14 6 27 14 30 18 3 3 16 12 30 19 45 23 403
232 410 240 3 3 11 6 19 8 8 2 26 11 40 21 14 10 57 36 94 57 38 21 90 51 115
67 26 15 70 39 97 53 28 15 52 30 55 34 3 4 10 9 15 11 19 7 150 83 155 89 3
3 30 19 60 34 30 16 57 32 60 35 3 4 21 15 40 25 19 9 64 35 100 57 36 21 76
44 90 50 13 5 27 14 30 18 3 5 33 24 68 42 34 19 78 43 96 54 19 11 92 54 162
95 71 41 138 80 149 87 11 7 39 22 62 35 24 12 43 26 43 30 0 4 5 8 11 8 5 0
60 29 120 65 60 36 113 65 118 65 5 0 11 4 13 8 3 7 83 55 203 122 22 12 47
28 56 36 8 8 20 14 26 14 6 0 22 9 35 20 14 10 28 16 32 13 3 -3 6 -1 6 5 0 7
7 12 15 12 8 0 15 5 15 10 0 6 9 10 19 10 11 0 21 4 23 8 2 7 158 100 296 178
109 62 410 238 432 253 14 10 50 31 80 47 30 16 57 31 60 35 3 3 30 19 60 35
30 16 57 31 60 34 7 7 37 25 95 56 28 15 52 29 55 33 3 3 21 15 42 26 50 28
175 100 223 130 22 14 47 28 55 32 54 28 156 88 158 95 2 4 10 8 18 8 8 0 14
5 14 12 0 6 3 9 6 5 3 -3 35 12 70 34 35 21 69 39 74 39 6 0 10 5 10 10 0 6 4
10 9 10 4 0 82 43 172 96 90 53 184 108 209 122 25 14 69 40 98 58 28 19 52
30 52 26 0 -4 4 -2 8 4 4 5 153 95 332 199 179 103 332 194 340 201 8 7 17 12
20 12 3 0 23 10 44 23 39 24 82 49 212 123 38 22 71 43 74 46 3 4 20 13 38 21
17 8 32 17 32 21 0 5 3 7 8 6 4 -1 18 5 32 13 14 9 77 46 140 83 63 37 122 71
130 76 8 5 56 32 105 61 50 28 93 57 97 63 4 6 8 7 8 3 0 -4 17 4 37 18 l38
25 0 2060 c0 1133 0 2060 0 2059 0 -1 -12 -6 -27 -12z"/>
</g>
</svg>
